<?xml version="1.0" standalone="no"?>
<!DOCTYPE svg PUBLIC "-//W3C//DTD SVG 20010904//EN"
 "http://www.w3.org/TR/2001/REC-SVG-20010904/DTD/svg10.dtd">
<svg version="1.0" xmlns="http://www.w3.org/2000/svg"
 width="1024.000000pt" height="1024.000000pt" viewBox="0 0 1024.000000 1024.000000"
 preserveAspectRatio="xMidYMid meet">
<metadata>
Created by potrace 1.11, written by Peter Selinger 2001-2013
</metadata>
<g transform="translate(0.000000,1024.000000) scale(0.100000,-0.100000)"
fill="#000000" stroke="none">
<path d="M0 5120 l0 -5120 5120 0 5120 0 0 5120 0 5120 -5120 0 -5120 0 0
-5120z m5152 2999 c2 -5 22 -13 44 -16 30 -4 54 -17 86 -47 25 -23 48 -51 52
-61 3 -11 17 -32 31 -47 14 -15 25 -34 25 -42 0 -8 6 -19 13 -23 14 -9 32 -37
47 -70 5 -13 13 -23 17 -23 5 0 14 -14 21 -30 8 -17 19 -36 25 -43 17 -18 35
-48 47 -74 5 -13 14 -23 19 -23 5 0 12 -8 15 -17 9 -25 33 -64 43 -72 4 -3 17
-23 28 -43 11 -21 23 -38 26 -38 4 0 10 -11 13 -25 4 -14 11 -25 16 -25 6 0
10 -7 10 -15 0 -9 6 -18 14 -21 8 -3 17 -16 20 -30 4 -13 11 -24 16 -24 6 0
10 -6 10 -14 0 -8 7 -16 15 -20 8 -3 15 -12 15 -21 0 -9 5 -21 10 -28 41 -48
50 -62 50 -74 0 -7 5 -13 10 -13 6 0 10 -6 10 -14 0 -8 7 -16 15 -20 8 -3 15
-14 15 -25 0 -10 7 -21 15 -25 8 -3 15 -12 15 -21 0 -8 4 -15 9 -15 5 0 13
-10 17 -22 6 -20 13 -31 41 -62 7 -8 22 -31 33 -52 34 -63 44 -79 58 -87 6 -4
12 -12 12 -18 0 -5 14 -28 30 -51 17 -22 30 -45 30 -49 0 -4 11 -20 25 -35 14
-15 25 -31 25 -37 0 -5 14 -26 30 -47 17 -21 30 -45 30 -54 0 -9 6 -16 13 -16
6 0 21 -19 32 -43 11 -23 30 -53 42 -67 13 -14 23 -30 23 -37 0 -7 6 -16 13
-20 14 -9 35 -41 43 -65 4 -10 10 -18 14 -18 5 0 19 -20 31 -45 12 -25 26 -45
30 -45 4 0 10 -11 13 -25 4 -14 11 -25 16 -25 6 0 10 -7 10 -15 0 -9 6 -18 14
-21 8 -3 17 -16 20 -30 4 -13 11 -24 16 -24 6 0 10 -6 10 -14 0 -8 7 -16 15
-20 8 -3 15 -13 15 -23 0 -10 14 -33 30 -52 17 -18 30 -40 30 -47 0 -8 5 -14
10 -14 6 0 10 -6 10 -14 0 -8 7 -16 15 -20 8 -3 15 -15 15 -26 0 -11 7 -23 15
-26 8 -4 15 -12 15 -20 0 -8 4 -14 10 -14 5 0 12 -11 16 -25 3 -14 10 -25 15
-25 5 0 9 -6 9 -13 0 -8 9 -22 20 -32 11 -10 20 -24 20 -32 0 -7 4 -13 9 -13
5 0 12 -8 15 -17 13 -34 31 -63 39 -63 4 0 12 -10 17 -22 12 -28 31 -57 48
-76 6 -7 12 -19 12 -27 0 -7 6 -15 13 -18 8 -3 21 -20 31 -39 25 -50 40 -72
54 -81 6 -4 12 -16 12 -26 0 -11 6 -21 13 -24 7 -2 21 -22 32 -43 11 -21 30
-50 43 -64 12 -13 22 -30 22 -37 0 -7 11 -24 25 -39 14 -15 28 -38 31 -51 4
-13 12 -23 20 -23 8 0 14 -5 14 -10 0 -6 18 -39 40 -74 22 -35 40 -68 40 -75
0 -6 6 -11 14 -11 8 0 17 -11 20 -25 4 -14 11 -25 16 -25 6 0 10 -7 10 -15 0
-9 7 -18 15 -21 8 -4 15 -14 15 -23 0 -9 11 -28 24 -42 13 -14 27 -35 30 -47
4 -12 12 -22 17 -22 5 0 9 -7 9 -15 0 -9 6 -18 14 -21 8 -3 17 -16 20 -30 4
-13 11 -24 16 -24 6 0 10 -7 10 -15 0 -8 4 -15 10 -15 5 0 12 -11 16 -25 3
-14 10 -25 15 -25 5 0 9 -6 9 -13 0 -7 9 -20 20 -30 11 -9 20 -24 20 -32 0 -8
5 -15 10 -15 6 0 10 -7 10 -15 0 -8 4 -15 10 -15 5 0 12 -11 16 -25 3 -14 10
-25 15 -25 8 0 33 -40 45 -72 3 -10 10 -18 15 -18 5 0 9 -6 9 -13 0 -8 9 -22
20 -32 11 -10 20 -24 20 -32 0 -7 4 -13 9 -13 5 0 11 -8 15 -17 8 -25 29 -57
44 -66 6 -4 12 -16 12 -26 0 -11 7 -21 15 -25 8 -3 15 -12 15 -21 0 -8 4 -15
9 -15 5 0 13 -10 17 -22 3 -12 17 -33 30 -47 13 -14 24 -31 24 -38 0 -6 6 -18
13 -25 6 -8 20 -29 30 -47 22 -43 24 -163 2 -181 -8 -7 -15 -21 -15 -32 0 -10
-7 -21 -15 -24 -8 -4 -15 -11 -15 -18 0 -13 -79 -63 -115 -72 -14 -3 -25 -10
-25 -14 0 -5 -18 -11 -40 -15 -22 -4 -42 -11 -46 -16 -3 -5 -15 -9 -28 -9 -12
0 -31 -7 -42 -15 -10 -8 -29 -15 -40 -15 -12 0 -27 -7 -34 -15 -7 -8 -22 -15
-35 -15 -19 0 -58 -14 -105 -39 -9 -5 -30 -12 -48 -16 -18 -3 -32 -10 -32 -15
0 -4 -18 -11 -40 -15 -22 -4 -42 -11 -46 -16 -3 -5 -14 -9 -24 -9 -10 0 -31
-6 -47 -14 -47 -23 -95 -42 -153 -61 -30 -11 -66 -25 -80 -32 -14 -7 -33 -13
-42 -13 -9 0 -20 -4 -23 -10 -3 -5 -16 -10 -28 -10 -12 0 -31 -7 -41 -15 -11
-8 -28 -15 -37 -15 -10 0 -30 -6 -46 -14 -47 -23 -95 -42 -153 -61 -30 -11
-66 -25 -80 -32 -14 -7 -33 -13 -42 -13 -9 0 -20 -4 -23 -10 -3 -5 -16 -10
-28 -10 -12 0 -31 -7 -41 -15 -11 -8 -28 -15 -37 -15 -10 0 -31 -7 -48 -15
-17 -8 -45 -22 -62 -30 -17 -8 -39 -15 -49 -15 -10 0 -21 -4 -24 -9 -4 -5 -24
-12 -46 -16 -22 -4 -40 -11 -40 -15 0 -5 -16 -12 -35 -16 -19 -3 -38 -10 -41
-15 -3 -5 -18 -9 -34 -9 -15 0 -30 -7 -34 -15 -3 -8 -16 -15 -29 -15 -13 0
-32 -7 -43 -15 -10 -8 -31 -15 -45 -15 -15 0 -32 -7 -39 -15 -7 -8 -23 -15
-36 -15 -12 0 -26 -4 -29 -10 -3 -5 -13 -10 -22 -10 -8 0 -29 -6 -46 -14 -65
-30 -110 -46 -127 -46 -10 0 -23 -6 -29 -14 -6 -7 -29 -16 -51 -20 -22 -3 -40
-11 -40 -16 0 -6 -12 -10 -26 -10 -14 0 -32 -7 -40 -15 -9 -8 -29 -15 -45 -15
-16 0 -29 -4 -29 -9 0 -5 -14 -13 -32 -16 -18 -4 -39 -11 -48 -16 -30 -17 -93
-39 -110 -39 -10 0 -23 -7 -30 -15 -17 -21 -139 -21 -166 0 -10 8 -29 15 -41
15 -12 0 -25 5 -28 10 -3 6 -13 10 -22 10 -8 0 -29 6 -46 14 -66 30 -110 46
-129 46 -10 0 -21 7 -24 15 -4 8 -18 15 -33 15 -15 0 -36 7 -47 15 -10 8 -31
15 -45 15 -15 0 -32 7 -39 15 -7 8 -20 15 -30 15 -10 0 -31 7 -46 15 -16 8
-39 15 -51 15 -13 0 -23 4 -23 9 0 5 -13 12 -30 16 -16 4 -32 11 -35 16 -4 5
-20 9 -36 9 -17 0 -32 6 -35 15 -4 8 -18 15 -33 15 -15 0 -36 7 -47 15 -10 8
-29 15 -42 15 -13 0 -30 7 -38 15 -9 8 -26 15 -39 15 -13 0 -26 4 -30 9 -3 5
-20 13 -37 17 -18 3 -39 10 -48 15 -47 25 -86 39 -105 39 -13 0 -28 7 -35 15
-7 8 -22 15 -34 15 -12 0 -31 7 -42 15 -10 8 -29 15 -42 15 -13 0 -30 7 -38
15 -9 8 -26 15 -39 15 -13 0 -26 4 -30 9 -3 5 -20 13 -37 17 -18 3 -39 10 -48
15 -47 25 -86 39 -106 39 -12 0 -29 7 -38 15 -8 8 -23 15 -33 15 -10 0 -27 7
-37 15 -11 8 -31 15 -44 15 -13 0 -30 7 -38 15 -9 8 -26 15 -39 15 -13 0 -26
4 -30 9 -3 5 -19 12 -36 16 -17 4 -42 13 -57 21 -15 8 -35 14 -44 14 -10 0
-18 5 -18 10 0 6 -11 10 -24 10 -13 0 -39 8 -58 17 -18 9 -45 22 -60 30 -14 7
-38 13 -52 13 -14 0 -26 5 -26 10 0 6 -8 10 -17 10 -10 0 -30 6 -45 14 -15 8
-40 17 -57 21 -17 4 -31 10 -31 15 0 4 -18 11 -40 15 -22 4 -40 11 -40 16 0 5
-11 9 -24 9 -13 0 -37 6 -53 14 -48 23 -96 42 -153 61 -30 10 -59 21 -65 25
-5 4 -25 11 -43 15 -17 3 -32 11 -32 16 0 5 -4 9 -9 9 -12 0 -81 62 -81 73 0
4 -7 15 -15 23 -8 9 -15 26 -15 39 0 13 -4 27 -10 30 -13 8 -13 82 -1 90 5 3
12 19 16 35 4 17 11 30 16 30 5 0 11 11 15 25 3 14 10 25 14 25 4 0 11 8 14
18 9 24 32 63 43 71 11 8 32 42 39 64 4 9 10 17 15 17 5 0 9 6 9 13 0 12 7 23
49 73 5 6 12 20 15 32 4 12 12 22 17 22 5 0 9 7 9 15 0 8 4 15 9 15 5 0 14 14
21 30 7 17 16 30 21 30 5 0 9 7 9 15 0 8 5 15 10 15 6 0 10 6 10 13 0 12 9 26
50 74 5 7 10 19 10 28 0 9 7 18 15 21 8 4 15 12 15 20 0 8 4 14 10 14 5 0 12
11 16 25 3 14 12 25 20 25 8 0 14 8 14 19 0 10 7 24 15 31 8 7 15 19 15 26 0
8 4 14 8 14 5 0 17 18 28 40 10 22 25 40 32 40 6 0 12 8 12 19 0 10 7 24 15
31 8 7 15 18 15 25 0 7 7 15 15 19 8 3 15 13 15 22 0 9 10 26 23 38 12 12 31
40 42 61 11 22 25 44 32 48 7 4 13 12 13 17 0 4 38 65 85 135 47 70 85 131 85
136 0 4 6 12 13 16 8 4 17 15 20 23 4 8 13 24 19 35 43 67 73 111 78 115 4 3
10 15 14 28 4 12 12 22 17 22 5 0 9 5 9 10 0 12 41 73 53 78 4 2 7 10 7 18 0
8 5 14 10 14 6 0 10 6 10 13 0 12 12 30 53 79 9 12 17 27 17 35 0 7 5 13 10
13 6 0 10 7 10 15 0 8 4 15 10 15 5 0 12 11 16 25 3 14 10 25 15 25 8 0 33 40
45 73 3 9 10 17 15 17 5 0 9 5 9 12 0 6 9 21 19 32 22 24 58 83 67 109 4 9 10
17 14 17 5 0 19 20 31 45 12 25 26 45 30 45 4 0 11 9 14 20 4 11 17 32 31 47
13 14 24 30 24 36 0 5 14 26 30 47 17 21 30 45 30 54 0 9 7 16 15 16 8 0 15 5
15 11 0 6 18 38 40 71 22 33 40 67 40 74 0 8 6 14 13 14 6 0 18 14 26 32 8 17
21 38 30 47 9 9 25 33 36 54 11 20 23 37 27 37 5 0 8 6 8 12 0 14 70 121 83
126 4 2 7 10 7 17 0 7 7 15 15 19 8 3 15 12 15 20 0 13 51 97 70 116 9 9 30
44 40 68 5 12 14 22 19 22 5 0 12 8 15 18 13 32 31 62 38 62 5 0 8 6 8 13 0 8
9 22 20 32 11 10 20 24 20 32 0 7 4 13 9 13 5 0 11 8 15 18 7 21 28 55 39 63
11 8 34 47 43 72 3 9 10 17 14 17 5 0 12 9 15 21 4 12 16 30 27 41 11 11 24
33 30 49 5 16 14 29 19 29 5 0 9 6 9 14 0 8 7 16 15 20 8 3 15 14 15 25 0 10
6 21 13 24 7 2 21 22 32 43 11 21 30 50 43 64 12 13 22 30 22 37 0 7 11 24 25
39 14 15 28 38 31 51 4 13 12 23 20 23 8 0 14 5 14 10 0 6 18 39 40 74 22 35
40 68 40 75 0 6 7 11 15 11 8 0 15 6 15 13 1 34 74 90 133 101 20 4 37 11 37
16 0 14 67 13 72 -1z"/>
<path d="M4940 6105 c-19 -7 -50 -14 -68 -14 -18 -1 -40 -5 -50 -11 -30 -16
-111 -50 -121 -50 -5 0 -11 -3 -13 -7 -1 -5 -21 -17 -43 -28 -22 -11 -42 -22
-45 -26 -3 -3 -26 -20 -51 -37 -26 -17 -58 -45 -72 -62 -14 -16 -30 -30 -36
-30 -6 0 -11 -7 -11 -15 0 -8 -7 -15 -15 -15 -8 0 -15 -5 -15 -10 0 -6 -11
-21 -25 -34 -14 -13 -25 -28 -25 -33 0 -6 -13 -26 -30 -44 -16 -19 -30 -42
-30 -52 0 -10 -7 -20 -15 -23 -8 -4 -15 -14 -15 -24 0 -17 -6 -31 -44 -108 -9
-19 -16 -48 -16 -66 0 -18 -6 -38 -12 -44 -10 -10 -13 -64 -13 -202 0 -138 3
-192 13 -201 6 -7 12 -30 12 -50 0 -21 4 -41 10 -44 5 -3 14 -24 20 -45 6 -22
15 -40 20 -40 6 0 10 -13 10 -30 0 -20 5 -30 15 -30 8 0 15 -9 15 -20 0 -12 5
-26 10 -33 40 -47 51 -63 62 -88 7 -16 16 -29 20 -29 12 0 48 -38 48 -50 0 -5
4 -10 10 -10 5 0 35 -25 66 -55 32 -30 62 -55 68 -55 6 0 23 -11 38 -25 14
-13 38 -27 52 -31 14 -3 26 -10 26 -15 0 -5 11 -9 24 -9 13 0 26 -7 30 -15 3
-8 18 -15 33 -15 15 0 37 -7 47 -15 11 -8 34 -15 52 -15 17 0 48 -7 67 -15 51
-21 310 -21 351 0 15 8 43 15 60 15 18 0 41 7 52 15 10 8 29 15 42 15 13 0 30
7 38 15 9 8 24 15 35 15 10 0 19 5 19 10 0 6 6 10 14 10 8 0 21 6 28 13 7 6
31 21 52 32 21 11 41 25 43 32 3 7 11 13 17 13 15 0 156 138 156 152 0 5 10
19 23 31 24 24 42 50 56 84 6 11 15 24 20 28 6 3 11 15 11 26 0 10 4 19 10 19
5 0 13 12 16 28 4 15 10 32 14 37 4 6 11 26 15 45 4 19 11 40 15 45 16 20 33
151 33 255 0 139 -18 235 -63 345 -5 11 -12 30 -15 43 -4 12 -11 22 -16 22 -5
0 -9 9 -9 19 0 11 -6 26 -13 33 -7 7 -16 20 -20 28 -19 37 -38 65 -73 108 -45
54 -146 152 -156 152 -4 0 -19 11 -34 25 -15 14 -38 28 -51 31 -13 4 -23 10
-23 14 0 4 -11 11 -25 14 -14 4 -25 10 -25 15 0 5 -13 12 -30 16 -16 4 -30 10
-30 14 0 9 -104 41 -134 41 -13 0 -40 7 -59 15 -48 20 -296 20 -347 0z"/>
<path d="M3965 4660 c-3 -5 -21 -10 -39 -10 -18 0 -41 -7 -52 -15 -10 -8 -31
-15 -46 -15 -15 0 -33 -7 -42 -15 -8 -8 -24 -15 -34 -15 -11 0 -33 -6 -49 -14
-45 -23 -100 -46 -111 -46 -6 0 -12 -3 -14 -7 -1 -5 -25 -19 -51 -33 -88 -46
-97 -51 -97 -61 0 -5 -7 -9 -15 -9 -9 0 -18 -7 -21 -15 -4 -8 -11 -15 -16 -15
-15 0 -138 -131 -138 -146 0 -7 -6 -17 -12 -21 -32 -20 -62 -123 -60 -203 2
-64 14 -140 22 -140 4 0 13 -12 19 -27 7 -16 18 -40 27 -55 17 -31 153 -168
167 -168 5 0 26 -13 47 -30 21 -16 45 -30 53 -30 8 0 17 -7 21 -15 3 -8 11
-15 17 -15 11 0 114 -45 161 -71 10 -5 26 -9 36 -9 10 0 27 -7 38 -15 10 -8
28 -15 40 -15 11 0 29 -7 40 -15 10 -8 36 -15 57 -15 20 0 37 -4 37 -8 0 -8
61 -24 160 -43 30 -6 64 -14 75 -19 25 -12 132 -28 252 -40 51 -4 98 -12 105
-17 7 -4 65 -11 128 -14 63 -4 192 -12 287 -20 141 -11 198 -11 325 0 84 7
209 16 278 20 69 4 132 11 139 16 8 4 52 11 100 16 47 4 122 14 166 23 44 8
109 21 145 28 36 6 67 15 70 19 3 4 26 10 53 14 26 4 50 11 53 16 3 5 20 9 38
9 18 0 41 7 52 15 10 8 28 15 40 15 11 0 29 7 40 15 10 8 27 15 37 15 9 0 25
4 35 10 9 5 40 19 67 30 90 38 136 63 162 87 7 6 22 15 33 18 11 3 20 11 20
16 0 5 5 9 11 9 21 0 159 136 159 156 0 8 7 14 15 14 8 0 15 9 15 19 0 11 4
22 9 25 5 3 12 18 16 33 3 15 11 31 17 34 18 11 13 198 -6 234 -9 17 -16 36
-16 43 0 6 -4 12 -10 12 -5 0 -10 9 -10 20 0 11 -7 23 -15 26 -8 4 -15 10 -15
15 0 13 -116 129 -129 129 -6 0 -11 6 -11 13 0 6 -19 21 -43 32 -23 11 -46 25
-50 32 -4 7 -17 13 -27 13 -11 0 -20 4 -20 9 0 5 -13 12 -30 16 -16 4 -30 10
-30 15 0 5 -13 11 -30 15 -16 4 -30 11 -30 16 0 5 -11 9 -25 9 -14 0 -28 7
-31 15 -4 8 -18 15 -33 15 -15 0 -36 7 -47 15 -10 8 -32 15 -47 15 -16 0 -35
7 -43 15 -9 8 -31 15 -50 15 -19 0 -34 5 -34 10 0 6 -13 10 -30 10 -24 0 -35
-8 -55 -40 -14 -22 -25 -46 -25 -54 0 -8 -7 -16 -15 -20 -8 -3 -15 -13 -15
-22 0 -9 -8 -23 -17 -30 -17 -12 -17 -14 2 -32 12 -11 42 -21 70 -24 27 -4 51
-11 53 -17 2 -6 21 -11 42 -11 21 0 43 -6 50 -15 7 -8 25 -15 41 -15 15 0 30
-4 34 -9 3 -5 19 -12 35 -16 17 -4 30 -10 30 -15 0 -5 13 -11 30 -15 16 -4 32
-11 35 -16 4 -5 14 -9 24 -9 10 0 24 -7 31 -15 7 -8 20 -15 30 -15 10 0 20 -7
24 -15 3 -8 15 -15 26 -15 11 0 20 -7 20 -15 0 -8 6 -15 13 -15 15 0 107 -85
107 -99 0 -5 7 -11 15 -15 12 -4 15 -24 15 -86 0 -64 -3 -80 -15 -80 -8 0 -15
-5 -15 -11 0 -6 -22 -34 -49 -61 -39 -39 -54 -48 -70 -43 -12 3 -21 12 -21 18
-1 17 -39 58 -75 81 -17 11 -34 25 -38 33 -4 7 -14 13 -21 13 -11 0 -104 42
-158 71 -10 5 -29 9 -44 9 -14 0 -32 7 -40 15 -9 8 -30 15 -47 15 -18 1 -43 7
-57 15 -14 8 -46 14 -72 15 -25 0 -48 5 -50 11 -2 6 -37 15 -78 20 -41 5 -102
13 -134 18 -62 10 -127 -5 -152 -35 -6 -8 -18 -14 -26 -14 -9 0 -21 -7 -28
-15 -7 -8 -23 -15 -35 -15 -13 0 -25 -7 -29 -15 -3 -8 -13 -15 -22 -15 -15 0
-96 -24 -139 -41 -111 -45 -563 -44 -620 1 -5 4 -29 11 -52 15 -24 4 -43 11
-43 16 0 5 -12 9 -26 9 -14 0 -32 7 -40 15 -9 8 -24 15 -34 15 -10 0 -22 5
-25 11 -4 5 -17 15 -28 20 -12 5 -38 19 -57 31 -28 17 -49 21 -105 19 -38 -1
-74 -6 -80 -10 -5 -5 -41 -11 -78 -14 -38 -2 -74 -10 -80 -16 -6 -6 -29 -11
-52 -11 -23 0 -50 -7 -61 -15 -10 -8 -35 -15 -54 -15 -19 0 -44 -7 -54 -15
-11 -8 -32 -15 -48 -15 -15 0 -28 -4 -28 -10 0 -5 -7 -10 -16 -10 -30 0 -192
-85 -207 -107 -4 -7 -15 -13 -22 -13 -8 0 -15 -5 -15 -11 0 -7 -11 -22 -25
-35 -14 -13 -25 -28 -25 -34 0 -18 -26 -11 -56 16 -66 57 -84 78 -84 94 0 10
-7 23 -15 30 -21 18 -19 73 6 120 24 46 105 130 126 130 7 0 16 7 19 15 4 8
12 15 20 15 8 0 14 4 14 10 0 5 11 12 25 16 13 3 29 12 36 20 6 8 20 14 30 14
11 0 19 5 19 10 0 6 6 10 13 10 6 1 30 9 52 20 22 11 48 19 57 20 9 0 20 5 23
10 3 6 16 10 29 10 12 0 31 7 42 15 10 8 30 15 44 15 14 0 36 7 50 15 14 8 38
14 53 15 44 0 67 17 67 49 0 16 -6 31 -13 34 -7 3 -29 35 -47 71 -29 57 -38
66 -61 66 -16 0 -31 -4 -34 -10z"/>
</g>
</svg>
